<svg class="rich-terminal" viewBox="0 0 1482 782.0" xmlns="http://www.w3.org/2000/svg">
    <!-- Generated with Rich https://www.textualize.io -->
    <style>

    @font-face {
        font-family: "Fira Code";
        src: local("FiraCode-Regular"),
                url("https://cdnjs.cloudflare.com/ajax/libs/firacode/6.2.0/woff2/FiraCode-Regular.woff2") format("woff2"),
                url("https://cdnjs.cloudflare.com/ajax/libs/firacode/6.2.0/woff/FiraCode-Regular.woff") format("woff");
        font-style: normal;
        font-weight: 400;
    }
    @font-face {
        font-family: "Fira Code";
        src: local("FiraCode-Bold"),
                url("https://cdnjs.cloudflare.com/ajax/libs/firacode/6.2.0/woff2/FiraCode-Bold.woff2") format("woff2"),
                url("https://cdnjs.cloudflare.com/ajax/libs/firacode/6.2.0/woff/FiraCode-Bold.woff") format("woff");
        font-style: bold;
        font-weight: 700;
    }

    .terminal-215287867-matrix {
        font-family: Fira Code, monospace;
        font-size: 20px;
        line-height: 24.4px;
        font-variant-east-asian: full-width;
    }

    .terminal-215287867-title {
        font-size: 18px;
        font-weight: bold;
        font-family: arial;
    }

    .terminal-215287867-r1 { fill: #c5c8c6 }
.terminal-215287867-r2 { fill: #e0e0e0 }
.terminal-215287867-r3 { fill: #a0a3a6 }
.terminal-215287867-r4 { fill: #c5c6c7 }
.terminal-215287867-r5 { fill: #6db2ff }
.terminal-215287867-r6 { fill: #ffcf56 }
.terminal-215287867-r7 { fill: #2d2d2d }
.terminal-215287867-r8 { fill: #e76580 }
.terminal-215287867-r9 { fill: #0c7dd4;font-weight: bold }
.terminal-215287867-r10 { fill: #211505;font-weight: bold }
.terminal-215287867-r11 { fill: #e0e0e0;font-weight: bold }
.terminal-215287867-r12 { fill: #f5e5e9;font-weight: bold }
.terminal-215287867-r13 { fill: #004295 }
.terminal-215287867-r14 { fill: #b86b00 }
.terminal-215287867-r15 { fill: #0d0d0d }
.terminal-215287867-r16 { fill: #780028 }
.terminal-215287867-r17 { fill: #a7abaf;font-weight: bold }
.terminal-215287867-r18 { fill: #a7abaf }
.terminal-215287867-r19 { fill: #fea62b }
.terminal-215287867-r20 { fill: #004578 }
.terminal-215287867-r21 { fill: #0178d4 }
.terminal-215287867-r22 { fill: #9e9e9e }
.terminal-215287867-r23 { fill: #1e1e1e }
.terminal-215287867-r24 { fill: #ffa62b;font-weight: bold }
    </style>

    <defs>
    <clipPath id="terminal-215287867-clip-terminal">
      <rect x="0" y="0" width="1463.0" height="731.0" />
    </clipPath>
    <clipPath id="terminal-215287867-line-0">
    <rect x="0" y="1.5" width="1464" height="24.65"/>
            </clipPath>
<clipPath id="terminal-215287867-line-1">
    <rect x="0" y="25.9" width="1464" height="24.65"/>
            </clipPath>
<clipPath id="terminal-215287867-line-2">
    <rect x="0" y="50.3" width="1464" height="24.65"/>
            </clipPath>
<clipPath id="terminal-215287867-line-3">
    <rect x="0" y="74.7" width="1464" height="24.65"/>
            </clipPath>
<clipPath id="terminal-215287867-line-4">
    <rect x="0" y="99.1" width="1464" height="24.65"/>
            </clipPath>
<clipPath id="terminal-215287867-line-5">
    <rect x="0" y="123.5" width="1464" height="24.65"/>
            </clipPath>
<clipPath id="terminal-215287867-line-6">
    <rect x="0" y="147.9" width="1464" height="24.65"/>
            </clipPath>
<clipPath id="terminal-215287867-line-7">
    <rect x="0" y="172.3" width="1464" height="24.65"/>
            </clipPath>
<clipPath id="terminal-215287867-line-8">
    <rect x="0" y="196.7" width="1464" height="24.65"/>
            </clipPath>
<clipPath id="terminal-215287867-line-9">
    <rect x="0" y="221.1" width="1464" height="24.65"/>
            </clipPath>
<clipPath id="terminal-215287867-line-10">
    <rect x="0" y="245.5" width="1464" height="24.65"/>
            </clipPath>
<clipPath id="terminal-215287867-line-11">
    <rect x="0" y="269.9" width="1464" height="24.65"/>
            </clipPath>
<clipPath id="terminal-215287867-line-12">
    <rect x="0" y="294.3" width="1464" height="24.65"/>
            </clipPath>
<clipPath id="terminal-215287867-line-13">
    <rect x="0" y="318.7" width="1464" height="24.65"/>
            </clipPath>
<clipPath id="terminal-215287867-line-14">
    <rect x="0" y="343.1" width="1464" height="24.65"/>
            </clipPath>
<clipPath id="terminal-215287867-line-15">
    <rect x="0" y="367.5" width="1464" height="24.65"/>
            </clipPath>
<clipPath id="terminal-215287867-line-16">
    <rect x="0" y="391.9" width="1464" height="24.65"/>
            </clipPath>
<clipPath id="terminal-215287867-line-17">
    <rect x="0" y="416.3" width="1464" height="24.65"/>
            </clipPath>
<clipPath id="terminal-215287867-line-18">
    <rect x="0" y="440.7" width="1464" height="24.65"/>
            </clipPath>
<clipPath id="terminal-215287867-line-19">
    <rect x="0" y="465.1" width="1464" height="24.65"/>
            </clipPath>
<clipPath id="terminal-215287867-line-20">
    <rect x="0" y="489.5" width="1464" height="24.65"/>
            </clipPath>
<clipPath id="terminal-215287867-line-21">
    <rect x="0" y="513.9" width="1464" height="24.65"/>
            </clipPath>
<clipPath id="terminal-215287867-line-22">
    <rect x="0" y="538.3" width="1464" height="24.65"/>
            </clipPath>
<clipPath id="terminal-215287867-line-23">
    <rect x="0" y="562.7" width="1464" height="24.65"/>
            </clipPath>
<clipPath id="terminal-215287867-line-24">
    <rect x="0" y="587.1" width="1464" height="24.65"/>
            </clipPath>
<clipPath id="terminal-215287867-line-25">
    <rect x="0" y="611.5" width="1464" height="24.65"/>
            </clipPath>
<clipPath id="terminal-215287867-line-26">
    <rect x="0" y="635.9" width="1464" height="24.65"/>
            </clipPath>
<clipPath id="terminal-215287867-line-27">
    <rect x="0" y="660.3" width="1464" height="24.65"/>
            </clipPath>
<clipPath id="terminal-215287867-line-28">
    <rect x="0" y="684.7" width="1464" height="24.65"/>
            </clipPath>
    </defs>

    <rect fill="#292929" stroke="rgba(255,255,255,0.35)" stroke-width="1" x="1" y="1" width="1480" height="780" rx="8"/><text class="terminal-215287867-title" fill="#c5c8c6" text-anchor="middle" x="740" y="27">💗&#160;llove</text>
            <g transform="translate(26,22)">
            <circle cx="0" cy="0" r="7" fill="#ff5f57"/>
            <circle cx="22" cy="0" r="7" fill="#febc2e"/>
            <circle cx="44" cy="0" r="7" fill="#28c840"/>
            </g>
        
    <g transform="translate(9, 41)" clip-path="url(#terminal-215287867-clip-terminal)">
    <rect fill="#242f38" x="0" y="1.5" width="12.2" height="24.65" shape-rendering="crispEdges"/><rect fill="#242f38" x="12.2" y="1.5" width="12.2" height="24.65" shape-rendering="crispEdges"/><rect fill="#242f38" x="24.4" y="1.5" width="61" height="24.65" shape-rendering="crispEdges"/><rect fill="#242f38" x="85.4" y="1.5" width="12.2" height="24.65" shape-rendering="crispEdges"/><rect fill="#242f38" x="97.6" y="1.5" width="268.4" height="24.65" shape-rendering="crispEdges"/><rect fill="#242f38" x="366" y="1.5" width="97.6" height="24.65" shape-rendering="crispEdges"/><rect fill="#242f38" x="463.6" y="1.5" width="36.6" height="24.65" shape-rendering="crispEdges"/><rect fill="#242f38" x="500.2" y="1.5" width="561.2" height="24.65" shape-rendering="crispEdges"/><rect fill="#242f38" x="1061.4" y="1.5" width="280.6" height="24.65" shape-rendering="crispEdges"/><rect fill="#2c363f" x="1342" y="1.5" width="12.2" height="24.65" shape-rendering="crispEdges"/><rect fill="#2c363f" x="1354.2" y="1.5" width="97.6" height="24.65" shape-rendering="crispEdges"/><rect fill="#2c363f" x="1451.8" y="1.5" width="12.2" height="24.65" shape-rendering="crispEdges"/><rect fill="#262626" x="0" y="25.9" width="12.2" height="24.65" shape-rendering="crispEdges"/><rect fill="#262626" x="12.2" y="25.9" width="12.2" height="24.65" shape-rendering="crispEdges"/><rect fill="#0c7dd4" x="24.4" y="25.9" width="146.4" height="24.65" shape-rendering="crispEdges"/><rect fill="#262626" x="170.8" y="25.9" width="12.2" height="24.65" shape-rendering="crispEdges"/><rect fill="#fea62b" x="183" y="25.9" width="146.4" height="24.65" shape-rendering="crispEdges"/><rect fill="#262626" x="329.4" y="25.9" width="12.2" height="24.65" shape-rendering="crispEdges"/><rect fill="#1e1e1e" x="341.6" y="25.9" width="146.4" height="24.65" shape-rendering="crispEdges"/><rect fill="#262626" x="488" y="25.9" width="12.2" height="24.65" shape-rendering="crispEdges"/><rect fill="#b93c5b" x="500.2" y="25.9" width="146.4" height="24.65" shape-rendering="crispEdges"/><rect fill="#262626" x="646.6" y="25.9" width="805.2" height="24.65" shape-rendering="crispEdges"/><rect fill="#262626" x="1451.8" y="25.9" width="12.2" height="24.65" shape-rendering="crispEdges"/><rect fill="#262626" x="0" y="50.3" width="12.2" height="24.65" shape-rendering="crispEdges"/><rect fill="#262626" x="12.2" y="50.3" width="12.2" height="24.65" shape-rendering="crispEdges"/><rect fill="#0c7dd4" x="24.4" y="50.3" width="12.2" height="24.65" shape-rendering="crispEdges"/><rect fill="#dfeef9" x="36.6" y="50.3" width="109.8" height="24.65" shape-rendering="crispEdges"/><rect fill="#0c7dd4" x="146.4" y="50.3" width="24.4" height="24.65" shape-rendering="crispEdges"/><rect fill="#262626" x="170.8" y="50.3" width="12.2" height="24.65" shape-rendering="crispEdges"/><rect fill="#fea62b" x="183" y="50.3" width="12.2" height="24.65" shape-rendering="crispEdges"/><rect fill="#fea62b" x="195.2" y="50.3" width="109.8" height="24.65" shape-rendering="crispEdges"/><rect fill="#fea62b" x="305" y="50.3" width="24.4" height="24.65" shape-rendering="crispEdges"/><rect fill="#262626" x="329.4" y="50.3" width="12.2" height="24.65" shape-rendering="crispEdges"/><rect fill="#1e1e1e" x="341.6" y="50.3" width="24.4" height="24.65" shape-rendering="crispEdges"/><rect fill="#1e1e1e" x="366" y="50.3" width="97.6" height="24.65" shape-rendering="crispEdges"/><rect fill="#1e1e1e" x="463.6" y="50.3" width="24.4" height="24.65" shape-rendering="crispEdges"/><rect fill="#262626" x="488" y="50.3" width="12.2" height="24.65" shape-rendering="crispEdges"/><rect fill="#b93c5b" x="500.2" y="50.3" width="24.4" height="24.65" shape-rendering="crispEdges"/><rect fill="#b93c5b" x="524.6" y="50.3" width="97.6" height="24.65" shape-rendering="crispEdges"/><rect fill="#b93c5b" x="622.2" y="50.3" width="24.4" height="24.65" shape-rendering="crispEdges"/><rect fill="#262626" x="646.6" y="50.3" width="805.2" height="24.65" shape-rendering="crispEdges"/><rect fill="#262626" x="1451.8" y="50.3" width="12.2" height="24.65" shape-rendering="crispEdges"/><rect fill="#262626" x="0" y="74.7" width="12.2" height="24.65" shape-rendering="crispEdges"/><rect fill="#262626" x="12.2" y="74.7" width="12.2" height="24.65" shape-rendering="crispEdges"/><rect fill="#0c7dd4" x="24.4" y="74.7" width="146.4" height="24.65" shape-rendering="crispEdges"/><rect fill="#262626" x="170.8" y="74.7" width="12.2" height="24.65" shape-rendering="crispEdges"/><rect fill="#fea62b" x="183" y="74.7" width="146.4" height="24.65" shape-rendering="crispEdges"/><rect fill="#262626" x="329.4" y="74.7" width="12.2" height="24.65" shape-rendering="crispEdges"/><rect fill="#1e1e1e" x="341.6" y="74.7" width="146.4" height="24.65" shape-rendering="crispEdges"/><rect fill="#262626" x="488" y="74.7" width="12.2" height="24.65" shape-rendering="crispEdges"/><rect fill="#b93c5b" x="500.2" y="74.7" width="146.4" height="24.65" shape-rendering="crispEdges"/><rect fill="#262626" x="646.6" y="74.7" width="805.2" height="24.65" shape-rendering="crispEdges"/><rect fill="#262626" x="1451.8" y="74.7" width="12.2" height="24.65" shape-rendering="crispEdges"/><rect fill="#242f38" x="0" y="99.1" width="24.4" height="24.65" shape-rendering="crispEdges"/><rect fill="#242f38" x="24.4" y="99.1" width="109.8" height="24.65" shape-rendering="crispEdges"/><rect fill="#242f38" x="134.2" y="99.1" width="341.6" height="24.65" shape-rendering="crispEdges"/><rect fill="#242f38" x="475.8" y="99.1" width="85.4" height="24.65" shape-rendering="crispEdges"/><rect fill="#242f38" x="561.2" y="99.1" width="878.4" height="24.65" shape-rendering="crispEdges"/><rect fill="#242f38" x="1439.6" y="99.1" width="24.4" height="24.65" shape-rendering="crispEdges"/><rect fill="#1e1e1e" x="0" y="123.5" width="12.2" height="24.65" shape-rendering="crispEdges"/><rect fill="#1e1e1e" x="12.2" y="123.5" width="12.2" height="24.65" shape-rendering="crispEdges"/><rect fill="#1e1e1e" x="24.4" y="123.5" width="475.8" height="24.65" shape-rendering="crispEdges"/><rect fill="#1e1e1e" x="500.2" y="123.5" width="951.6" height="24.65" shape-rendering="crispEdges"/><rect fill="#1e1e1e" x="1451.8" y="123.5" width="12.2" height="24.65" shape-rendering="crispEdges"/><rect fill="#1e1e1e" x="0" y="147.9" width="12.2" height="24.65" shape-rendering="crispEdges"/><rect fill="#1e1e1e" x="12.2" y="147.9" width="12.2" height="24.65" shape-rendering="crispEdges"/><rect fill="#1e1e1e" x="24.4" y="147.9" width="158.6" height="24.65" shape-rendering="crispEdges"/><rect fill="#1e1e1e" x="183" y="147.9" width="1256.6" height="24.65" shape-rendering="crispEdges"/><rect fill="#1e1e1e" x="1439.6" y="147.9" width="12.2" height="24.65" shape-rendering="crispEdges"/><rect fill="#1e1e1e" x="1451.8" y="147.9" width="12.2" height="24.65" shape-rendering="crispEdges"/><rect fill="#1e1e1e" x="0" y="172.3" width="12.2" height="24.65" shape-rendering="crispEdges"/><rect fill="#1e1e1e" x="12.2" y="172.3" width="12.2" height="24.65" shape-rendering="crispEdges"/><rect fill="#1e1e1e" x="24.4" y="172.3" width="1415.2" height="24.65" shape-rendering="crispEdges"/><rect fill="#1e1e1e" x="1439.6" y="172.3" width="12.2" height="24.65" shape-rendering="crispEdges"/><rect fill="#1e1e1e" x="1451.8" y="172.3" width="12.2" height="24.65" shape-rendering="crispEdges"/><rect fill="#1e1e1e" x="0" y="196.7" width="12.2" height="24.65" shape-rendering="crispEdges"/><rect fill="#1e1e1e" x="12.2" y="196.7" width="12.2" height="24.65" shape-rendering="crispEdges"/><rect fill="#1e1e1e" x="24.4" y="196.7" width="1415.2" height="24.65" shape-rendering="crispEdges"/><rect fill="#1e1e1e" x="1439.6" y="196.7" width="12.2" height="24.65" shape-rendering="crispEdges"/><rect fill="#1e1e1e" x="1451.8" y="196.7" width="12.2" height="24.65" shape-rendering="crispEdges"/><rect fill="#1e1e1e" x="0" y="221.1" width="12.2" height="24.65" shape-rendering="crispEdges"/><rect fill="#1e1e1e" x="12.2" y="221.1" width="12.2" height="24.65" shape-rendering="crispEdges"/><rect fill="#1e1e1e" x="24.4" y="221.1" width="1415.2" height="24.65" shape-rendering="crispEdges"/><rect fill="#1e1e1e" x="1439.6" y="221.1" width="12.2" height="24.65" shape-rendering="crispEdges"/><rect fill="#1e1e1e" x="1451.8" y="221.1" width="12.2" height="24.65" shape-rendering="crispEdges"/><rect fill="#1e1e1e" x="0" y="245.5" width="12.2" height="24.65" shape-rendering="crispEdges"/><rect fill="#1e1e1e" x="12.2" y="245.5" width="12.2" height="24.65" shape-rendering="crispEdges"/><rect fill="#1e1e1e" x="24.4" y="245.5" width="1415.2" height="24.65" shape-rendering="crispEdges"/><rect fill="#1e1e1e" x="1439.6" y="245.5" width="12.2" height="24.65" shape-rendering="crispEdges"/><rect fill="#1e1e1e" x="1451.8" y="245.5" width="12.2" height="24.65" shape-rendering="crispEdges"/><rect fill="#1e1e1e" x="0" y="269.9" width="12.2" height="24.65" shape-rendering="crispEdges"/><rect fill="#1e1e1e" x="12.2" y="269.9" width="12.2" height="24.65" shape-rendering="crispEdges"/><rect fill="#1e1e1e" x="24.4" y="269.9" width="1415.2" height="24.65" shape-rendering="crispEdges"/><rect fill="#1e1e1e" x="1439.6" y="269.9" width="12.2" height="24.65" shape-rendering="crispEdges"/><rect fill="#1e1e1e" x="1451.8" y="269.9" width="12.2" height="24.65" shape-rendering="crispEdges"/><rect fill="#1e1e1e" x="0" y="294.3" width="12.2" height="24.65" shape-rendering="crispEdges"/><rect fill="#1e1e1e" x="12.2" y="294.3" width="1183.4" height="24.65" shape-rendering="crispEdges"/><rect fill="#1e1e1e" x="1195.6" y="294.3" width="244" height="24.65" shape-rendering="crispEdges"/><rect fill="#1e1e1e" x="1439.6" y="294.3" width="12.2" height="24.65" shape-rendering="crispEdges"/><rect fill="#1e1e1e" x="1451.8" y="294.3" width="12.2" height="24.65" shape-rendering="crispEdges"/><rect fill="#1e1e1e" x="0" y="318.7" width="12.2" height="24.65" shape-rendering="crispEdges"/><rect fill="#1e1e1e" x="12.2" y="318.7" width="12.2" height="24.65" shape-rendering="crispEdges"/><rect fill="#1e1e1e" x="24.4" y="318.7" width="695.4" height="24.65" shape-rendering="crispEdges"/><rect fill="#1e1e1e" x="719.8" y="318.7" width="732" height="24.65" shape-rendering="crispEdges"/><rect fill="#1e1e1e" x="1451.8" y="318.7" width="12.2" height="24.65" shape-rendering="crispEdges"/><rect fill="#1e1e1e" x="0" y="343.1" width="12.2" height="24.65" shape-rendering="crispEdges"/><rect fill="#1e1e1e" x="12.2" y="343.1" width="12.2" height="24.65" shape-rendering="crispEdges"/><rect fill="#1e1e1e" x="24.4" y="343.1" width="1024.8" height="24.65" shape-rendering="crispEdges"/><rect fill="#1e1e1e" x="1049.2" y="343.1" width="390.4" height="24.65" shape-rendering="crispEdges"/><rect fill="#1e1e1e" x="1439.6" y="343.1" width="12.2" height="24.65" shape-rendering="crispEdges"/><rect fill="#1e1e1e" x="1451.8" y="343.1" width="12.2" height="24.65" shape-rendering="crispEdges"/><rect fill="#1e1e1e" x="0" y="367.5" width="12.2" height="24.65" shape-rendering="crispEdges"/><rect fill="#1e1e1e" x="12.2" y="367.5" width="12.2" height="24.65" shape-rendering="crispEdges"/><rect fill="#1e1e1e" x="24.4" y="367.5" width="1281" height="24.65" shape-rendering="crispEdges"/><rect fill="#1e1e1e" x="1305.4" y="367.5" width="134.2" height="24.65" shape-rendering="crispEdges"/><rect fill="#1e1e1e" x="1439.6" y="367.5" width="12.2" height="24.65" shape-rendering="crispEdges"/><rect fill="#1e1e1e" x="1451.8" y="367.5" width="12.2" height="24.65" shape-rendering="crispEdges"/><rect fill="#1e1e1e" x="0" y="391.9" width="12.2" height="24.65" shape-rendering="crispEdges"/><rect fill="#1e1e1e" x="12.2" y="391.9" width="12.2" height="24.65" shape-rendering="crispEdges"/><rect fill="#1e1e1e" x="24.4" y="391.9" width="1415.2" height="24.65" shape-rendering="crispEdges"/><rect fill="#1e1e1e" x="1439.6" y="391.9" width="12.2" height="24.65" shape-rendering="crispEdges"/><rect fill="#1e1e1e" x="1451.8" y="391.9" width="12.2" height="24.65" shape-rendering="crispEdges"/><rect fill="#1e1e1e" x="0" y="416.3" width="12.2" height="24.65" shape-rendering="crispEdges"/><rect fill="#1e1e1e" x="12.2" y="416.3" width="12.2" height="24.65" shape-rendering="crispEdges"/><rect fill="#1e1e1e" x="24.4" y="416.3" width="1415.2" height="24.65" shape-rendering="crispEdges"/><rect fill="#1e1e1e" x="1439.6" y="416.3" width="12.2" height="24.65" shape-rendering="crispEdges"/><rect fill="#1e1e1e" x="1451.8" y="416.3" width="12.2" height="24.65" shape-rendering="crispEdges"/><rect fill="#1e1e1e" x="0" y="440.7" width="12.2" height="24.65" shape-rendering="crispEdges"/><rect fill="#1e1e1e" x="12.2" y="440.7" width="12.2" height="24.65" shape-rendering="crispEdges"/><rect fill="#1e1e1e" x="24.4" y="440.7" width="1415.2" height="24.65" shape-rendering="crispEdges"/><rect fill="#1e1e1e" x="1439.6" y="440.7" width="12.2" height="24.65" shape-rendering="crispEdges"/><rect fill="#1e1e1e" x="1451.8" y="440.7" width="12.2" height="24.65" shape-rendering="crispEdges"/><rect fill="#1e1e1e" x="0" y="465.1" width="12.2" height="24.65" shape-rendering="crispEdges"/><rect fill="#1e1e1e" x="12.2" y="465.1" width="12.2" height="24.65" shape-rendering="crispEdges"/><rect fill="#1e1e1e" x="24.4" y="465.1" width="1415.2" height="24.65" shape-rendering="crispEdges"/><rect fill="#1e1e1e" x="1439.6" y="465.1" width="12.2" height="24.65" shape-rendering="crispEdges"/><rect fill="#1e1e1e" x="1451.8" y="465.1" width="12.2" height="24.65" shape-rendering="crispEdges"/><rect fill="#1e1e1e" x="0" y="489.5" width="12.2" height="24.65" shape-rendering="crispEdges"/><rect fill="#1e1e1e" x="12.2" y="489.5" width="1122.4" height="24.65" shape-rendering="crispEdges"/><rect fill="#1e1e1e" x="1134.6" y="489.5" width="305" height="24.65" shape-rendering="crispEdges"/><rect fill="#1e1e1e" x="1439.6" y="489.5" width="12.2" height="24.65" shape-rendering="crispEdges"/><rect fill="#1e1e1e" x="1451.8" y="489.5" width="12.2" height="24.65" shape-rendering="crispEdges"/><rect fill="#1e1e1e" x="0" y="513.9" width="12.2" height="24.65" shape-rendering="crispEdges"/><rect fill="#1e1e1e" x="12.2" y="513.9" width="12.2" height="24.65" shape-rendering="crispEdges"/><rect fill="#1e1e1e" x="24.4" y="513.9" width="793" height="24.65" shape-rendering="crispEdges"/><rect fill="#1e1e1e" x="817.4" y="513.9" width="634.4" height="24.65" shape-rendering="crispEdges"/><rect fill="#1e1e1e" x="1451.8" y="513.9" width="12.2" height="24.65" shape-rendering="crispEdges"/><rect fill="#1e1e1e" x="0" y="538.3" width="12.2" height="24.65" shape-rendering="crispEdges"/><rect fill="#1e1e1e" x="12.2" y="538.3" width="12.2" height="24.65" shape-rendering="crispEdges"/><rect fill="#1e1e1e" x="24.4" y="538.3" width="97.6" height="24.65" shape-rendering="crispEdges"/><rect fill="#1e1e1e" x="122" y="538.3" width="24.4" height="24.65" shape-rendering="crispEdges"/><rect fill="#1e1e1e" x="146.4" y="538.3" width="85.4" height="24.65" shape-rendering="crispEdges"/><rect fill="#1e1e1e" x="231.8" y="538.3" width="1207.8" height="24.65" shape-rendering="crispEdges"/><rect fill="#1e1e1e" x="1439.6" y="538.3" width="12.2" height="24.65" shape-rendering="crispEdges"/><rect fill="#1e1e1e" x="1451.8" y="538.3" width="12.2" height="24.65" shape-rendering="crispEdges"/><rect fill="#1e1e1e" x="0" y="562.7" width="12.2" height="24.65" shape-rendering="crispEdges"/><rect fill="#1e1e1e" x="12.2" y="562.7" width="12.2" height="24.65" shape-rendering="crispEdges"/><rect fill="#1e1e1e" x="24.4" y="562.7" width="24.4" height="24.65" shape-rendering="crispEdges"/><rect fill="#1e1e1e" x="48.8" y="562.7" width="85.4" height="24.65" shape-rendering="crispEdges"/><rect fill="#1e1e1e" x="134.2" y="562.7" width="48.8" height="24.65" shape-rendering="crispEdges"/><rect fill="#e0e0e0" x="183" y="562.7" width="97.6" height="24.65" shape-rendering="crispEdges"/><rect fill="#1e1e1e" x="280.6" y="562.7" width="1061.4" height="24.65" shape-rendering="crispEdges"/><rect fill="#1e1e1e" x="1342" y="562.7" width="97.6" height="24.65" shape-rendering="crispEdges"/><rect fill="#1e1e1e" x="1439.6" y="562.7" width="12.2" height="24.65" shape-rendering="crispEdges"/><rect fill="#1e1e1e" x="1451.8" y="562.7" width="12.2" height="24.65" shape-rendering="crispEdges"/><rect fill="#1e1e1e" x="0" y="587.1" width="12.2" height="24.65" shape-rendering="crispEdges"/><rect fill="#1e1e1e" x="12.2" y="587.1" width="12.2" height="24.65" shape-rendering="crispEdges"/><rect fill="#1e1e1e" x="24.4" y="587.1" width="256.2" height="24.65" shape-rendering="crispEdges"/><rect fill="#1e1e1e" x="280.6" y="587.1" width="1159" height="24.65" shape-rendering="crispEdges"/><rect fill="#1e1e1e" x="1439.6" y="587.1" width="12.2" height="24.65" shape-rendering="crispEdges"/><rect fill="#1e1e1e" x="1451.8" y="587.1" width="12.2" height="24.65" shape-rendering="crispEdges"/><rect fill="#1e1e1e" x="0" y="611.5" width="12.2" height="24.65" shape-rendering="crispEdges"/><rect fill="#1e1e1e" x="12.2" y="611.5" width="12.2" height="24.65" shape-rendering="crispEdges"/><rect fill="#1e1e1e" x="24.4" y="611.5" width="0" height="24.65" shape-rendering="crispEdges"/><rect fill="#1e1e1e" x="24.4" y="611.5" width="1415.2" height="24.65" shape-rendering="crispEdges"/><rect fill="#1e1e1e" x="1439.6" y="611.5" width="12.2" height="24.65" shape-rendering="crispEdges"/><rect fill="#1e1e1e" x="1451.8" y="611.5" width="12.2" height="24.65" shape-rendering="crispEdges"/><rect fill="#1e1e1e" x="0" y="635.9" width="12.2" height="24.65" shape-rendering="crispEdges"/><rect fill="#1e1e1e" x="12.2" y="635.9" width="12.2" height="24.65" shape-rendering="crispEdges"/><rect fill="#1e1e1e" x="24.4" y="635.9" width="97.6" height="24.65" shape-rendering="crispEdges"/><rect fill="#1e1e1e" x="122" y="635.9" width="24.4" height="24.65" shape-rendering="crispEdges"/><rect fill="#1e1e1e" x="146.4" y="635.9" width="292.8" height="24.65" shape-rendering="crispEdges"/><rect fill="#1e1e1e" x="439.2" y="635.9" width="1000.4" height="24.65" shape-rendering="crispEdges"/><rect fill="#1e1e1e" x="1439.6" y="635.9" width="12.2" height="24.65" shape-rendering="crispEdges"/><rect fill="#1e1e1e" x="1451.8" y="635.9" width="12.2" height="24.65" shape-rendering="crispEdges"/><rect fill="#1e1e1e" x="0" y="660.3" width="12.2" height="24.65" shape-rendering="crispEdges"/><rect fill="#1e1e1e" x="12.2" y="660.3" width="12.2" height="24.65" shape-rendering="crispEdges"/><rect fill="#1e1e1e" x="24.4" y="660.3" width="24.4" height="24.65" shape-rendering="crispEdges"/><rect fill="#1e1e1e" x="48.8" y="660.3" width="36.6" height="24.65" shape-rendering="crispEdges"/><rect fill="#1e1e1e" x="85.4" y="660.3" width="1024.8" height="24.65" shape-rendering="crispEdges"/><rect fill="#e0e0e0" x="1110.2" y="660.3" width="122" height="24.65" shape-rendering="crispEdges"/><rect fill="#1e1e1e" x="1232.2" y="660.3" width="24.4" height="24.65" shape-rendering="crispEdges"/><rect fill="#e0e0e0" x="1256.6" y="660.3" width="48.8" height="24.65" shape-rendering="crispEdges"/><rect fill="#1e1e1e" x="1305.4" y="660.3" width="73.2" height="24.65" shape-rendering="crispEdges"/><rect fill="#e0e0e0" x="1378.6" y="660.3" width="61" height="24.65" shape-rendering="crispEdges"/><rect fill="#1e1e1e" x="1439.6" y="660.3" width="12.2" height="24.65" shape-rendering="crispEdges"/><rect fill="#1e1e1e" x="1451.8" y="660.3" width="12.2" height="24.65" shape-rendering="crispEdges"/><rect fill="#1e1e1e" x="0" y="684.7" width="12.2" height="24.65" shape-rendering="crispEdges"/><rect fill="#1e1e1e" x="12.2" y="684.7" width="1207.8" height="24.65" shape-rendering="crispEdges"/><rect fill="#1e1e1e" x="1220" y="684.7" width="219.6" height="24.65" shape-rendering="crispEdges"/><rect fill="#1e1e1e" x="1439.6" y="684.7" width="12.2" height="24.65" shape-rendering="crispEdges"/><rect fill="#1e1e1e" x="1451.8" y="684.7" width="12.2" height="24.65" shape-rendering="crispEdges"/><rect fill="#242f38" x="0" y="709.1" width="36.6" height="24.65" shape-rendering="crispEdges"/><rect fill="#242f38" x="36.6" y="709.1" width="61" height="24.65" shape-rendering="crispEdges"/><rect fill="#242f38" x="97.6" y="709.1" width="36.6" height="24.65" shape-rendering="crispEdges"/><rect fill="#242f38" x="134.2" y="709.1" width="146.4" height="24.65" shape-rendering="crispEdges"/><rect fill="#242f38" x="280.6" y="709.1" width="85.4" height="24.65" shape-rendering="crispEdges"/><rect fill="#242f38" x="366" y="709.1" width="158.6" height="24.65" shape-rendering="crispEdges"/><rect fill="#242f38" x="524.6" y="709.1" width="36.6" height="24.65" shape-rendering="crispEdges"/><rect fill="#242f38" x="561.2" y="709.1" width="61" height="24.65" shape-rendering="crispEdges"/><rect fill="#242f38" x="622.2" y="709.1" width="36.6" height="24.65" shape-rendering="crispEdges"/><rect fill="#242f38" x="658.8" y="709.1" width="195.2" height="24.65" shape-rendering="crispEdges"/><rect fill="#242f38" x="854" y="709.1" width="610" height="24.65" shape-rendering="crispEdges"/>
    <g class="terminal-215287867-matrix">
    <text class="terminal-215287867-r2" x="12.2" y="20" textLength="12.2" clip-path="url(#terminal-215287867-line-0)">⭘</text><text class="terminal-215287867-r2" x="366" y="20" textLength="85.4" clip-path="url(#terminal-215287867-line-0)">💗&#160;llove</text><text class="terminal-215287867-r3" x="463.6" y="20" textLength="36.6" clip-path="url(#terminal-215287867-line-0)">&#160;—&#160;</text><text class="terminal-215287867-r3" x="500.2" y="20" textLength="561.2" clip-path="url(#terminal-215287867-line-0)">Made&#160;with&#160;llove&#160;—&#160;Watch&#160;your&#160;LLMesh&#160;with&#160;llove</text><text class="terminal-215287867-r4" x="1354.2" y="20" textLength="97.6" clip-path="url(#terminal-215287867-line-0)">12:18:33</text><text class="terminal-215287867-r1" x="1464" y="20" textLength="12.2" clip-path="url(#terminal-215287867-line-0)">
</text><text class="terminal-215287867-r5" x="24.4" y="44.4" textLength="146.4" clip-path="url(#terminal-215287867-line-1)">▔▔▔▔▔▔▔▔▔▔▔▔</text><text class="terminal-215287867-r6" x="183" y="44.4" textLength="146.4" clip-path="url(#terminal-215287867-line-1)">▔▔▔▔▔▔▔▔▔▔▔▔</text><text class="terminal-215287867-r7" x="341.6" y="44.4" textLength="146.4" clip-path="url(#terminal-215287867-line-1)">▔▔▔▔▔▔▔▔▔▔▔▔</text><text class="terminal-215287867-r8" x="500.2" y="44.4" textLength="146.4" clip-path="url(#terminal-215287867-line-1)">▔▔▔▔▔▔▔▔▔▔▔▔</text><text class="terminal-215287867-r1" x="1464" y="44.4" textLength="12.2" clip-path="url(#terminal-215287867-line-1)">
</text><text class="terminal-215287867-r9" x="36.6" y="68.8" textLength="109.8" clip-path="url(#terminal-215287867-line-2)">&#160;⏸&#160;Pause&#160;</text><text class="terminal-215287867-r10" x="195.2" y="68.8" textLength="109.8" clip-path="url(#terminal-215287867-line-2)">&#160;⟲&#160;Reset&#160;</text><text class="terminal-215287867-r11" x="366" y="68.8" textLength="97.6" clip-path="url(#terminal-215287867-line-2)">&#160;?&#160;Help&#160;</text><text class="terminal-215287867-r12" x="524.6" y="68.8" textLength="97.6" clip-path="url(#terminal-215287867-line-2)">&#160;✕&#160;Quit&#160;</text><text class="terminal-215287867-r1" x="1464" y="68.8" textLength="12.2" clip-path="url(#terminal-215287867-line-2)">
</text><text class="terminal-215287867-r13" x="24.4" y="93.2" textLength="146.4" clip-path="url(#terminal-215287867-line-3)">▁▁▁▁▁▁▁▁▁▁▁▁</text><text class="terminal-215287867-r14" x="183" y="93.2" textLength="146.4" clip-path="url(#terminal-215287867-line-3)">▁▁▁▁▁▁▁▁▁▁▁▁</text><text class="terminal-215287867-r15" x="341.6" y="93.2" textLength="146.4" clip-path="url(#terminal-215287867-line-3)">▁▁▁▁▁▁▁▁▁▁▁▁</text><text class="terminal-215287867-r16" x="500.2" y="93.2" textLength="146.4" clip-path="url(#terminal-215287867-line-3)">▁▁▁▁▁▁▁▁▁▁▁▁</text><text class="terminal-215287867-r1" x="1464" y="93.2" textLength="12.2" clip-path="url(#terminal-215287867-line-3)">
</text><text class="terminal-215287867-r17" x="24.4" y="117.6" textLength="109.8" clip-path="url(#terminal-215287867-line-4)">↑&#160;buttons</text><text class="terminal-215287867-r18" x="134.2" y="117.6" textLength="341.6" clip-path="url(#terminal-215287867-line-4)">&#160;=&#160;clickable&#160;controls&#160;&#160;&#160;·&#160;&#160;&#160;</text><text class="terminal-215287867-r17" x="475.8" y="117.6" textLength="85.4" clip-path="url(#terminal-215287867-line-4)">↓&#160;panes</text><text class="terminal-215287867-r18" x="561.2" y="117.6" textLength="878.4" clip-path="url(#terminal-215287867-line-4)">&#160;=&#160;read-only&#160;data&#160;displays&#160;&#160;&#160;·&#160;&#160;&#160;key&#160;shortcuts:&#160;q&#160;quit&#160;·&#160;r&#160;reset&#160;·&#160;space</text><text class="terminal-215287867-r1" x="1464" y="117.6" textLength="12.2" clip-path="url(#terminal-215287867-line-4)">
</text><text class="terminal-215287867-r19" x="0" y="142" textLength="12.2" clip-path="url(#terminal-215287867-line-5)">╭</text><text class="terminal-215287867-r19" x="12.2" y="142" textLength="12.2" clip-path="url(#terminal-215287867-line-5)">─</text><text class="terminal-215287867-r19" x="24.4" y="142" textLength="451.4" clip-path="url(#terminal-215287867-line-5)">&#160;📡&#160;SensorEvent&#160;stream&#160;&#160;·&#160;📖&#160;read-only&#160;</text><text class="terminal-215287867-r19" x="500.2" y="142" textLength="951.6" clip-path="url(#terminal-215287867-line-5)">──────────────────────────────────────────────────────────────────────────────</text><text class="terminal-215287867-r19" x="1451.8" y="142" textLength="12.2" clip-path="url(#terminal-215287867-line-5)">╮</text><text class="terminal-215287867-r1" x="1464" y="142" textLength="12.2" clip-path="url(#terminal-215287867-line-5)">
</text><text class="terminal-215287867-r19" x="0" y="166.4" textLength="12.2" clip-path="url(#terminal-215287867-line-6)">│</text><text class="terminal-215287867-r2" x="24.4" y="166.4" textLength="158.6" clip-path="url(#terminal-215287867-line-6)">(no&#160;data&#160;yet)</text><text class="terminal-215287867-r19" x="1451.8" y="166.4" textLength="12.2" clip-path="url(#terminal-215287867-line-6)">│</text><text class="terminal-215287867-r1" x="1464" y="166.4" textLength="12.2" clip-path="url(#terminal-215287867-line-6)">
</text><text class="terminal-215287867-r19" x="0" y="190.8" textLength="12.2" clip-path="url(#terminal-215287867-line-7)">│</text><text class="terminal-215287867-r19" x="1451.8" y="190.8" textLength="12.2" clip-path="url(#terminal-215287867-line-7)">│</text><text class="terminal-215287867-r1" x="1464" y="190.8" textLength="12.2" clip-path="url(#terminal-215287867-line-7)">
</text><text class="terminal-215287867-r19" x="0" y="215.2" textLength="12.2" clip-path="url(#terminal-215287867-line-8)">│</text><text class="terminal-215287867-r19" x="1451.8" y="215.2" textLength="12.2" clip-path="url(#terminal-215287867-line-8)">│</text><text class="terminal-215287867-r1" x="1464" y="215.2" textLength="12.2" clip-path="url(#terminal-215287867-line-8)">
</text><text class="terminal-215287867-r19" x="0" y="239.6" textLength="12.2" clip-path="url(#terminal-215287867-line-9)">│</text><text class="terminal-215287867-r19" x="1451.8" y="239.6" textLength="12.2" clip-path="url(#terminal-215287867-line-9)">│</text><text class="terminal-215287867-r1" x="1464" y="239.6" textLength="12.2" clip-path="url(#terminal-215287867-line-9)">
</text><text class="terminal-215287867-r19" x="0" y="264" textLength="12.2" clip-path="url(#terminal-215287867-line-10)">│</text><text class="terminal-215287867-r19" x="1451.8" y="264" textLength="12.2" clip-path="url(#terminal-215287867-line-10)">│</text><text class="terminal-215287867-r1" x="1464" y="264" textLength="12.2" clip-path="url(#terminal-215287867-line-10)">
</text><text class="terminal-215287867-r19" x="0" y="288.4" textLength="12.2" clip-path="url(#terminal-215287867-line-11)">│</text><text class="terminal-215287867-r19" x="1451.8" y="288.4" textLength="12.2" clip-path="url(#terminal-215287867-line-11)">│</text><text class="terminal-215287867-r1" x="1464" y="288.4" textLength="12.2" clip-path="url(#terminal-215287867-line-11)">
</text><text class="terminal-215287867-r19" x="0" y="312.8" textLength="12.2" clip-path="url(#terminal-215287867-line-12)">╰</text><text class="terminal-215287867-r19" x="12.2" y="312.8" textLength="1183.4" clip-path="url(#terminal-215287867-line-12)">─────────────────────────────────────────────────────────────────────────────────────────────────</text><text class="terminal-215287867-r19" x="1195.6" y="312.8" textLength="244" clip-path="url(#terminal-215287867-line-12)">&#160;(waiting&#160;for&#160;data)&#160;</text><text class="terminal-215287867-r19" x="1439.6" y="312.8" textLength="12.2" clip-path="url(#terminal-215287867-line-12)">─</text><text class="terminal-215287867-r19" x="1451.8" y="312.8" textLength="12.2" clip-path="url(#terminal-215287867-line-12)">╯</text><text class="terminal-215287867-r1" x="1464" y="312.8" textLength="12.2" clip-path="url(#terminal-215287867-line-12)">
</text><text class="terminal-215287867-r20" x="0" y="337.2" textLength="12.2" clip-path="url(#terminal-215287867-line-13)">╭</text><text class="terminal-215287867-r20" x="12.2" y="337.2" textLength="12.2" clip-path="url(#terminal-215287867-line-13)">─</text><text class="terminal-215287867-r20" x="24.4" y="337.2" textLength="671" clip-path="url(#terminal-215287867-line-13)">&#160;📋&#160;Audit&#160;log&#160;—&#160;audit&#160;/&#160;LLM&#160;/&#160;RAG&#160;events&#160;&#160;·&#160;📖&#160;read-only&#160;</text><text class="terminal-215287867-r20" x="719.8" y="337.2" textLength="732" clip-path="url(#terminal-215287867-line-13)">────────────────────────────────────────────────────────────</text><text class="terminal-215287867-r20" x="1451.8" y="337.2" textLength="12.2" clip-path="url(#terminal-215287867-line-13)">╮</text><text class="terminal-215287867-r1" x="1464" y="337.2" textLength="12.2" clip-path="url(#terminal-215287867-line-13)">
</text><text class="terminal-215287867-r20" x="0" y="361.6" textLength="12.2" clip-path="url(#terminal-215287867-line-14)">│</text><text class="terminal-215287867-r2" x="24.4" y="361.6" textLength="1012.6" clip-path="url(#terminal-215287867-line-14)">03:18:31&#160;&#160;🔑&#160;identity:&#160;did:key:z6Mkqc5UFB9UrhnJsNANV6cbt8hVP9xCySK2z6jneRHhb8ou&#160;&#160;(fp</text><text class="terminal-215287867-r20" x="1451.8" y="361.6" textLength="12.2" clip-path="url(#terminal-215287867-line-14)">│</text><text class="terminal-215287867-r1" x="1464" y="361.6" textLength="12.2" clip-path="url(#terminal-215287867-line-14)">
</text><text class="terminal-215287867-r20" x="0" y="386" textLength="12.2" clip-path="url(#terminal-215287867-line-15)">│</text><text class="terminal-215287867-r2" x="24.4" y="386" textLength="1281" clip-path="url(#terminal-215287867-line-15)">7c:5e:e7:3b:e1:32:67:be:b5:4b:b3:83:34:eb:b5:15,&#160;src&#160;D:\projects\llmesh\config\node_identity.json,&#160;sign✓)</text><text class="terminal-215287867-r20" x="1451.8" y="386" textLength="12.2" clip-path="url(#terminal-215287867-line-15)">│</text><text class="terminal-215287867-r1" x="1464" y="386" textLength="12.2" clip-path="url(#terminal-215287867-line-15)">
</text><text class="terminal-215287867-r20" x="0" y="410.4" textLength="12.2" clip-path="url(#terminal-215287867-line-16)">│</text><text class="terminal-215287867-r20" x="1451.8" y="410.4" textLength="12.2" clip-path="url(#terminal-215287867-line-16)">│</text><text class="terminal-215287867-r1" x="1464" y="410.4" textLength="12.2" clip-path="url(#terminal-215287867-line-16)">
</text><text class="terminal-215287867-r20" x="0" y="434.8" textLength="12.2" clip-path="url(#terminal-215287867-line-17)">│</text><text class="terminal-215287867-r20" x="1451.8" y="434.8" textLength="12.2" clip-path="url(#terminal-215287867-line-17)">│</text><text class="terminal-215287867-r1" x="1464" y="434.8" textLength="12.2" clip-path="url(#terminal-215287867-line-17)">
</text><text class="terminal-215287867-r20" x="0" y="459.2" textLength="12.2" clip-path="url(#terminal-215287867-line-18)">│</text><text class="terminal-215287867-r20" x="1451.8" y="459.2" textLength="12.2" clip-path="url(#terminal-215287867-line-18)">│</text><text class="terminal-215287867-r1" x="1464" y="459.2" textLength="12.2" clip-path="url(#terminal-215287867-line-18)">
</text><text class="terminal-215287867-r20" x="0" y="483.6" textLength="12.2" clip-path="url(#terminal-215287867-line-19)">│</text><text class="terminal-215287867-r20" x="1451.8" y="483.6" textLength="12.2" clip-path="url(#terminal-215287867-line-19)">│</text><text class="terminal-215287867-r1" x="1464" y="483.6" textLength="12.2" clip-path="url(#terminal-215287867-line-19)">
</text><text class="terminal-215287867-r20" x="0" y="508" textLength="12.2" clip-path="url(#terminal-215287867-line-20)">╰</text><text class="terminal-215287867-r20" x="12.2" y="508" textLength="1122.4" clip-path="url(#terminal-215287867-line-20)">────────────────────────────────────────────────────────────────────────────────────────────</text><text class="terminal-215287867-r20" x="1134.6" y="508" textLength="305" clip-path="url(#terminal-215287867-line-20)">&#160;audit:1&#160;·&#160;llm:0&#160;·&#160;rag:0&#160;</text><text class="terminal-215287867-r20" x="1439.6" y="508" textLength="12.2" clip-path="url(#terminal-215287867-line-20)">─</text><text class="terminal-215287867-r20" x="1451.8" y="508" textLength="12.2" clip-path="url(#terminal-215287867-line-20)">╯</text><text class="terminal-215287867-r1" x="1464" y="508" textLength="12.2" clip-path="url(#terminal-215287867-line-20)">
</text><text class="terminal-215287867-r21" x="0" y="532.4" textLength="12.2" clip-path="url(#terminal-215287867-line-21)">╭</text><text class="terminal-215287867-r21" x="12.2" y="532.4" textLength="12.2" clip-path="url(#terminal-215287867-line-21)">─</text><text class="terminal-215287867-r21" x="24.4" y="532.4" textLength="768.6" clip-path="url(#terminal-215287867-line-21)">&#160;💬&#160;Narration&#160;—&#160;what&#x27;s&#160;happening,&#160;in&#160;plain&#160;words&#160;&#160;·&#160;📖&#160;read-only&#160;</text><text class="terminal-215287867-r21" x="817.4" y="532.4" textLength="634.4" clip-path="url(#terminal-215287867-line-21)">────────────────────────────────────────────────────</text><text class="terminal-215287867-r21" x="1451.8" y="532.4" textLength="12.2" clip-path="url(#terminal-215287867-line-21)">╮</text><text class="terminal-215287867-r1" x="1464" y="532.4" textLength="12.2" clip-path="url(#terminal-215287867-line-21)">
</text><text class="terminal-215287867-r21" x="0" y="556.8" textLength="12.2" clip-path="url(#terminal-215287867-line-22)">│</text><text class="terminal-215287867-r22" x="24.4" y="556.8" textLength="97.6" clip-path="url(#terminal-215287867-line-22)">03:18:33</text><text class="terminal-215287867-r11" x="146.4" y="556.8" textLength="85.4" clip-path="url(#terminal-215287867-line-22)">Timeout</text><text class="terminal-215287867-r21" x="1451.8" y="556.8" textLength="12.2" clip-path="url(#terminal-215287867-line-22)">│</text><text class="terminal-215287867-r1" x="1464" y="556.8" textLength="12.2" clip-path="url(#terminal-215287867-line-22)">
</text><text class="terminal-215287867-r21" x="0" y="581.2" textLength="12.2" clip-path="url(#terminal-215287867-line-23)">│</text><text class="terminal-215287867-r11" x="48.8" y="581.2" textLength="85.4" clip-path="url(#terminal-215287867-line-23)">Timeout</text><text class="terminal-215287867-r2" x="134.2" y="581.2" textLength="48.8" clip-path="url(#terminal-215287867-line-23)">&#160;on&#160;</text><text class="terminal-215287867-r23" x="183" y="581.2" textLength="97.6" clip-path="url(#terminal-215287867-line-23)">WebFetch</text><text class="terminal-215287867-r2" x="280.6" y="581.2" textLength="1061.4" clip-path="url(#terminal-215287867-line-23)">&#160;(&gt;5&#160;s,&#160;no&#160;response).&#160;Caller&#160;will&#160;retry&#160;once&#160;with&#160;backoff&#160;—&#160;that&#x27;s&#160;a&#160;llmesh&#160;reliability</text><text class="terminal-215287867-r21" x="1451.8" y="581.2" textLength="12.2" clip-path="url(#terminal-215287867-line-23)">│</text><text class="terminal-215287867-r1" x="1464" y="581.2" textLength="12.2" clip-path="url(#terminal-215287867-line-23)">
</text><text class="terminal-215287867-r21" x="0" y="605.6" textLength="12.2" clip-path="url(#terminal-215287867-line-24)">│</text><text class="terminal-215287867-r2" x="24.4" y="605.6" textLength="256.2" clip-path="url(#terminal-215287867-line-24)">primitive,&#160;not&#160;magic.</text><text class="terminal-215287867-r21" x="1451.8" y="605.6" textLength="12.2" clip-path="url(#terminal-215287867-line-24)">│</text><text class="terminal-215287867-r1" x="1464" y="605.6" textLength="12.2" clip-path="url(#terminal-215287867-line-24)">
</text><text class="terminal-215287867-r21" x="0" y="630" textLength="12.2" clip-path="url(#terminal-215287867-line-25)">│</text><text class="terminal-215287867-r21" x="1451.8" y="630" textLength="12.2" clip-path="url(#terminal-215287867-line-25)">│</text><text class="terminal-215287867-r1" x="1464" y="630" textLength="12.2" clip-path="url(#terminal-215287867-line-25)">
</text><text class="terminal-215287867-r21" x="0" y="654.4" textLength="12.2" clip-path="url(#terminal-215287867-line-26)">│</text><text class="terminal-215287867-r22" x="24.4" y="654.4" textLength="97.6" clip-path="url(#terminal-215287867-line-26)">03:18:31</text><text class="terminal-215287867-r11" x="146.4" y="654.4" textLength="292.8" clip-path="url(#terminal-215287867-line-26)">Scenario:&#160;MCP&#160;tool&#160;calls</text><text class="terminal-215287867-r21" x="1451.8" y="654.4" textLength="12.2" clip-path="url(#terminal-215287867-line-26)">│</text><text class="terminal-215287867-r1" x="1464" y="654.4" textLength="12.2" clip-path="url(#terminal-215287867-line-26)">
</text><text class="terminal-215287867-r21" x="0" y="678.8" textLength="12.2" clip-path="url(#terminal-215287867-line-27)">│</text><text class="terminal-215287867-r11" x="48.8" y="678.8" textLength="36.6" clip-path="url(#terminal-215287867-line-27)">MCP</text><text class="terminal-215287867-r2" x="85.4" y="678.8" textLength="1024.8" clip-path="url(#terminal-215287867-line-27)">&#160;=&#160;Model&#160;Context&#160;Protocol.&#160;Each&#160;tool&#160;call&#160;is&#160;a&#160;TRACE_SPAN.&#160;We&#160;replay&#160;6&#160;spans&#160;across&#160;</text><text class="terminal-215287867-r23" x="1110.2" y="678.8" textLength="122" clip-path="url(#terminal-215287867-line-27)">filesystem</text><text class="terminal-215287867-r2" x="1232.2" y="678.8" textLength="24.4" clip-path="url(#terminal-215287867-line-27)">,&#160;</text><text class="terminal-215287867-r23" x="1256.6" y="678.8" textLength="48.8" clip-path="url(#terminal-215287867-line-27)">http</text><text class="terminal-215287867-r2" x="1305.4" y="678.8" textLength="73.2" clip-path="url(#terminal-215287867-line-27)">,&#160;and&#160;</text><text class="terminal-215287867-r23" x="1378.6" y="678.8" textLength="61" clip-path="url(#terminal-215287867-line-27)">shell</text><text class="terminal-215287867-r21" x="1451.8" y="678.8" textLength="12.2" clip-path="url(#terminal-215287867-line-27)">│</text><text class="terminal-215287867-r1" x="1464" y="678.8" textLength="12.2" clip-path="url(#terminal-215287867-line-27)">
</text><text class="terminal-215287867-r21" x="0" y="703.2" textLength="12.2" clip-path="url(#terminal-215287867-line-28)">╰</text><text class="terminal-215287867-r21" x="12.2" y="703.2" textLength="1207.8" clip-path="url(#terminal-215287867-line-28)">───────────────────────────────────────────────────────────────────────────────────────────────────</text><text class="terminal-215287867-r21" x="1220" y="703.2" textLength="219.6" clip-path="url(#terminal-215287867-line-28)">&#160;beat&#160;2&#160;·&#160;Timeout&#160;</text><text class="terminal-215287867-r21" x="1439.6" y="703.2" textLength="12.2" clip-path="url(#terminal-215287867-line-28)">─</text><text class="terminal-215287867-r21" x="1451.8" y="703.2" textLength="12.2" clip-path="url(#terminal-215287867-line-28)">╯</text><text class="terminal-215287867-r1" x="1464" y="703.2" textLength="12.2" clip-path="url(#terminal-215287867-line-28)">
</text><text class="terminal-215287867-r24" x="0" y="727.6" textLength="36.6" clip-path="url(#terminal-215287867-line-29)">&#160;q&#160;</text><text class="terminal-215287867-r2" x="36.6" y="727.6" textLength="61" clip-path="url(#terminal-215287867-line-29)">Quit&#160;</text><text class="terminal-215287867-r24" x="97.6" y="727.6" textLength="36.6" clip-path="url(#terminal-215287867-line-29)">&#160;r&#160;</text><text class="terminal-215287867-r2" x="134.2" y="727.6" textLength="146.4" clip-path="url(#terminal-215287867-line-29)">Reset&#160;views&#160;</text><text class="terminal-215287867-r24" x="280.6" y="727.6" textLength="85.4" clip-path="url(#terminal-215287867-line-29)">&#160;space&#160;</text><text class="terminal-215287867-r2" x="366" y="727.6" textLength="158.6" clip-path="url(#terminal-215287867-line-29)">Pause/Resume&#160;</text><text class="terminal-215287867-r24" x="524.6" y="727.6" textLength="36.6" clip-path="url(#terminal-215287867-line-29)">&#160;h&#160;</text><text class="terminal-215287867-r2" x="561.2" y="727.6" textLength="61" clip-path="url(#terminal-215287867-line-29)">Help&#160;</text><text class="terminal-215287867-r24" x="622.2" y="727.6" textLength="36.6" clip-path="url(#terminal-215287867-line-29)">&#160;:&#160;</text><text class="terminal-215287867-r2" x="658.8" y="727.6" textLength="195.2" clip-path="url(#terminal-215287867-line-29)">Command&#160;Palette&#160;</text>
    </g>
    </g>
</svg>
